<svg id="Layer_1" data-name="Layer 1" xmlns="http://www.w3.org/2000/svg" viewBox="0 0 1620.9 559.85"><defs><style>.cls-1{fill:#ef4423;}</style></defs><path class="cls-1" d="M1521.06,570.4h-1357c-102.63,0-172-102.27-130.74-193.48,12.66-28,31-58,56.9-89.31,32.52-39.27,22.2-99.3,1-153.46C68,74.77,111.3,10.55,175.07,10.55H1532.73c90.36,0,141.86,103.87,86.56,175.33a436.61,436.61,0,0,1-41.41,45.76c-52.13,50.56-65.33,143,2.7,213,19.2,19.74,26,48.7,16.2,74.43C1585.72,548.11,1557.25,570.4,1521.06,570.4Z" transform="translate(-21.22 -10.55)"/></svg>